#!OML:ASF X:\für Bonn\!DataBase\2005_08_10_Bjorn_Final\c3d\bjorn.ASF
:FULLY-SPECIFIED
:DEGREES
109
root 0.888803 8.84726 3.85829 -185.801 1.25508 -180.199
lowerback 37.2111 -5.09452 4.35994
upperback 16.2864 1.35806 -2.44087
thorax -0.522636 3.63411 -5.29146
lowerneck -18.3394 -0.283618 2.50689
upperneck -1.44487 -1.50208 -0.964978
head 2.7057 -1.06473 -0.897189
rclavicle 7.95139e-015 -2.34566e-014
rhumerus 79.1647 -2.6194 -59.0227
rradius 19.3671
rwrist 24.0644
rhand -13.7015 11.2577
rfingers 7.12502
rthumb 12.4169 -18.3535
lclavicle 7.95139e-015 -2.34566e-014
lhumerus 81.9016 -3.96184 58.5857
lradius 12.076
lwrist -35.4043
lhand -31.4043 -8.81344
lfingers 7.12502
lthumb -4.67355 21.115
rfemur -57.2645 -79.5722 -19.396
rtibia 148.535
rfoot -55.2082 48.1771
rtoes -32.9182
lfemur -79.0386 22.1394 -20.3861
ltibia 150.736
lfoot -35.2593 -8.43138
ltoes -37.0793
110
root 0.883493 8.99852 3.87417 -185.185 1.32125 -180.219
lowerback 36.8783 -5.02866 4.43631
upperback 16.2597 1.37689 -2.43281
thorax -0.4428 3.61675 -5.32313
lowerneck -18.1807 -0.276824 2.54085
upperneck -1.38734 -1.47758 -1.00655
head 2.69685 -1.04665 -0.913447
rclavicle -3.06128e-014 -5.1684e-015
rhumerus 79.0005 -2.50198 -58.5254
rradius 19.238
rwrist 23.6556
rhand -13.9169 11.2396
rfingers 7.12502
rthumb 12.2092 -18.3841
lclavicle -3.06128e-014 -5.1684e-015
lhumerus 81.69 -4.09786 58.6941
lradius 11.9797
lwrist -36.0714
lhand -31.2352 -8.538
lfingers 7.12502
lthumb -4.51022 21.394
rfemur -69.0951 -74.9275 -6.1737
rtibia 147.423
rfoot -51.7707 46.9808
rtoes -32.7464
lfemur -79.2483 22.1264 -20.8349
ltibia 149.673
lfoot -34.7957 -8.35229
ltoes -37.1145
111
root 0.878866 9.15903 3.89065 -184.511 1.4075 -180.237
lowerback 36.521 -4.93625 4.49249
upperback 16.1994 1.39907 -2.41861
thorax -0.390005 3.58934 -5.34031
lowerneck -18.0129 -0.272172 2.5718
upperneck -1.34096 -1.45693 -1.0255
head 2.68243 -1.03 -0.921741
rclavicle -7.95139e-016 1.19271e-014
rhumerus 78.8216 -2.38277 -58.0799
rradius 19.1267
rwrist 23.4444
rhand -14.2022 11.2243
rfingers 7.12502
rthumb 11.9341 -18.4156
lclavicle -7.95139e-016 1.19271e-014
lhumerus 81.5035 -4.22838 58.5879
lradius 11.8651
lwrist -36.2688
lhand -31.086 -8.31624
lfingers 7.12502
lthumb -4.36617 21.6187
rfemur -75.1242 -69.4739 1.21863
rtibia 146.225
rfoot -48.2819 45.4821
rtoes -32.41
lfemur -79.5093 22.1238 -21.2692
ltibia 148.542
lfoot -34.2731 -8.40483
ltoes -37.0039
112
root 0.872985 9.32533 3.90674 -183.837 1.4759 -180.258
lowerback 36.1713 -4.85857 4.57191
upperback 16.1316 1.40967 -2.41413
thorax -0.347444 3.55778 -5.3769
lowerneck -17.8823 -0.26568 2.61401
upperneck -1.25564 -1.43492 -1.06055
head 2.68842 -1.01243 -0.938234
rclavicle 5.36719e-014 -2.46493e-014
rhumerus 78.6505 -2.28153 -57.6862
rradius 19.0356
rwrist 23.3399
rhand -14.5272 11.1534
rfingers 7.12502
rthumb 11.6207 -18.5044
lclavicle 5.36719e-014 -2.46493e-014
lhumerus 81.3971 -4.37131 58.146
lradius 11.7648
lwrist -35.8585
lhand -30.8752 -8.15554
lfingers 7.12502
lthumb -4.16264 21.7835
rfemur -78.0304 -64.0328 5.37432
rtibia 144.975
rfoot -45.301 43.7823
rtoes -32.1236
lfemur -79.6872 22.0959 -21.6697
ltibia 147.362
lfoot -33.7596 -8.58376
ltoes -36.7329
113
root 0.868202 9.49909 3.92324 -183.126 1.56338 -180.279
lowerback 35.8082 -4.75381 4.64137
upperback 16.0416 1.43796 -2.39898
thorax -0.321332 3.52773 -5.40348
lowerneck -17.7934 -0.266663 2.6662
upperneck -1.15006 -1.42507 -1.12947
head 2.70881 -1.00251 -0.969501
rclavicle -6.75868e-015 1.74931e-014
rhumerus 78.4632 -2.1987 -57.4336
rradius 18.9657
rwrist 23.4394
rhand -14.8216 11.0906
rfingers 7.12502
rthumb 11.3368 -18.583
lclavicle -6.75868e-015 1.74931e-014
lhumerus 81.3295 -4.52145 57.703
lradius 11.6778
lwrist -35.1514
lhand -30.6466 -8.19858
lfingers 7.12502
lthumb -3.94191 21.7447
rfemur -79.6334 -58.6647 8.14797
rtibia 143.672
rfoot -42.7322 41.8952
rtoes -31.7804
lfemur -79.8819 22.0794 -22.035
ltibia 146.113
lfoot -33.1917 -8.93
ltoes -36.2203
114
root 0.862861 9.68027 3.93845 -182.435 1.6306 -180.317
lowerback 35.4283 -4.66845 4.69881
upperback 15.9826 1.45085 -2.39752
thorax -0.255954 3.49795 -5.43122
lowerneck -17.8069 -0.254453 2.76932
upperneck -0.989147 -1.4096 -1.24649
head 2.76748 -0.991909 -1.02758
rclavicle 3.97569e-015 1.15295e-014
rhumerus 78.3204 -2.15842 -57.1747
rradius 18.9409
rwrist 23.591
rhand -15.0794 10.9788
rfingers 7.12502
rthumb 11.0882 -18.7082
lclavicle 3.97569e-015 1.15295e-014
lhumerus 81.33 -4.61535 57.2709
lradius 11.6418
lwrist -34.3207
lhand -30.4044 -8.2215
lfingers 7.12502
lthumb -3.70794 21.726
rfemur -80.3556 -53.6425 9.96981
rtibia 142.285
rfoot -40.6494 39.9944
rtoes -31.4078
lfemur -79.9814 22.0266 -22.4083
ltibia 144.81
lfoot -32.6661 -9.21396
ltoes -35.8672
115
root 0.857762 9.86749 3.95325 -181.726 1.67964 -180.338
lowerback 35.0413 -4.58499 4.75376
upperback 15.9072 1.45199 -2.36401
thorax -0.20595 3.45619 -5.42096
lowerneck -17.9266 -0.253259 2.76663
upperneck -0.716326 -1.38827 -1.30898
head 2.88586 -0.973794 -1.05099
rclavicle -1.90833e-014 -1.23246e-014
rhumerus 78.2128 -2.1037 -57.0574
rradius 18.9115
rwrist 23.948
rhand -15.2195 10.91
rfingers 7.12502
rthumb 10.953 -18.7843
lclavicle -1.90833e-014 -1.23246e-014
lhumerus 81.3275 -4.65464 56.9263
lradius 11.6285
lwrist -33.3686
lhand -30.1325 -8.4372
lfingers 7.12502
lthumb -3.44545 21.5147
rfemur -80.6836 -48.9537 11.3379
rtibia 140.847
rfoot -38.9775 38.0333
rtoes -31.181
lfemur -80.0607 21.958 -22.7383
ltibia 143.457
lfoot -32.1175 -9.56699
ltoes -35.4194
116
root 0.853949 10.0611 3.96642 -181.072 1.72947 -180.358
lowerback 34.6938 -4.50529 4.82442
upperback 15.8435 1.4696 -2.35409
thorax -0.153086 3.43137 -5.44909
lowerneck -18.101 -0.25175 2.87605
upperneck -0.419085 -1.38805 -1.4483
head 3.02279 -0.969697 -1.12322
rclavicle 9.14409e-015 -1.19271e-015
rhumerus 78.1194 -2.12771 -57.1916
rradius 18.8863
rwrist 24.5225
rhand -15.2177 10.8115
rfingers 7.12502
rthumb 10.9548 -18.8827
lclavicle 9.14409e-015 -1.19271e-015
lhumerus 81.3949 -4.7135 56.4997
lradius 11.6364
lwrist -32.3663
lhand -29.9606 -8.5789
lfingers 7.12502
lthumb -3.27945 21.3756
rfemur -80.6226 -44.6706 12.298
rtibia 139.349
rfoot -37.6824 36.1617
rtoes -30.8382
lfemur -79.924 18.947 -22.8231
ltibia 142.034
lfoot -31.1978 -8.87088
ltoes -34.6684
117
root 0.850562 10.26 3.9788 -180.438 1.73133 -180.377
lowerback 34.3483 -4.44625 4.8988
upperback 15.7832 1.46635 -2.33618
thorax -0.0984071 3.3981 -5.46435
lowerneck -18.2896 -0.257649 2.93326
upperneck -0.118319 -1.39004 -1.54261
head 3.16449 -0.965276 -1.1718
rclavicle -2.34566e-014 1.59028e-015
rhumerus 78.035 -2.16651 -57.2137
rradius 18.9067
rwrist 24.9824
rhand -15.0694 10.6811
rfingers 7.12502
rthumb 11.0978 -19.0055
lclavicle -2.34566e-014 1.59028e-015
lhumerus 81.4558 -4.71882 56.372
lradius 11.6507
lwrist -31.815
lhand -29.9289 -8.73736
lfingers 7.12502
lthumb -3.24878 21.2176
rfemur -80.3526 -40.84 13.024
rtibia 137.792
rfoot -36.7123 34.3595
rtoes -30.6535
lfemur -79.7203 16.3199 -22.8386
ltibia 140.571
lfoot -30.4251 -8.238
ltoes -34.1399
118
root 0.847694 10.4625 3.98889 -179.87 1.72402 -180.394
lowerback 34.0551 -4.40426 4.95982
upperback 15.7476 1.46022 -2.31817
thorax -0.0344193 3.37163 -5.4714
lowerneck -18.518 -0.252301 2.99544
upperneck 0.152504 -1.38462 -1.63396
head 3.30407 -0.959655 -1.22028
rclavicle 4.17448e-014 -3.97569e-015
rhumerus 78.0156 -2.24727 -57.4573
rradius 18.9368
rwrist 25.6562
rhand -14.7946 10.5824
rfingers 7.12502
rthumb 11.3629 -19.0897
lclavicle 4.17448e-014 -3.97569e-015
lhumerus 81.5314 -4.68128 56.3811
lradius 11.6861
lwrist -31.5788
lhand -30.063 -8.85498
lfingers 7.12502
lthumb -3.37827 21.098
rfemur -79.8515 -37.4791 13.5287
rtibia 136.193
rfoot -35.945 32.7687
rtoes -30.2937
lfemur -79.3482 14.1777 -22.7895
ltibia 139.061
lfoot -29.7646 -7.69511
ltoes -33.6608
119
root 0.846403 10.6682 4.00054 -179.33 1.70596 -180.427
lowerback 33.8378 -4.35332 4.95888
upperback 15.6872 1.44948 -2.26944
thorax -0.0244492 3.33465 -5.41502
lowerneck -18.65 -0.24914 3.04356
upperneck 0.358841 -1.37418 -1.77666
head 3.40297 -0.955071 -1.28116
rclavicle 2.22639e-014 -1.11319e-014
rhumerus 78.0335 -2.30973 -57.6298
rradius 18.9735
rwrist 26.3242
rhand -14.5117 10.474
rfingers 7.12502
rthumb 11.6357 -19.1829
lclavicle 2.22639e-014 -1.11319e-014
lhumerus 81.5252 -4.60001 56.6348
lradius 11.7667
lwrist -31.7497
lhand -30.3672 -8.85776
lfingers 7.12502
lthumb -3.67202 21.0904
rfemur -79.2744 -34.4662 13.9288
rtibia 134.55
rfoot -35.3543 31.2615
rtoes -30.0542
lfemur -78.9518 12.3079 -22.7387
ltibia 137.522
lfoot -29.1858 -7.10217
ltoes -33.5778
120
root 0.843846 10.8769 4.01338 -178.782 1.68954 -180.426
lowerback 33.6151 -4.31481 5.04529
upperback 15.6039 1.43911 -2.24802
thorax -0.0359963 3.30001 -5.43492
lowerneck -18.5893 -0.251269 3.0801
upperneck 0.448376 -1.36745 -1.83744
head 3.42351 -0.948751 -1.308
rclavicle 2.06736e-014 -5.56597e-015
rhumerus 78.0276 -2.41548 -57.8449
rradius 19.0317
rwrist 26.9334
rhand -14.0671 10.4066
rfingers 7.12502
rthumb 12.0645 -19.2256
lclavicle 2.06736e-014 -5.56597e-015
lhumerus 81.4948 -4.56102 57.1352
lradius 11.8503
lwrist -32.3754
lhand -30.8362 -8.78404
lfingers 7.12502
lthumb -4.12495 21.1558
rfemur -78.6922 -31.7199 14.3118
rtibia 132.869
rfoot -34.7837 29.8787
rtoes -29.6628
lfemur -78.5517 10.7035 -22.659
ltibia 135.951
lfoot -28.6219 -6.49215
ltoes -33.6688
121
root 0.842282 11.089 4.02736 -178.232 1.65519 -180.477
lowerback 33.3481 -4.27138 5.08769
upperback 15.5458 1.42597 -2.22939
thorax -0.00440168 3.26628 -5.43146
lowerneck -18.4705 -0.256162 3.12659
upperneck 0.459716 -1.36833 -1.90807
head 3.40471 -0.948684 -1.33872
rclavicle -2.22639e-014 -7.15625e-015
rhumerus 78.1046 -2.58152 -58.2256
rradius 19.0444
rwrist 27.692
rhand -13.7008 10.456
rfingers 7.12502
rthumb 12.4176 -19.1552
lclavicle -2.22639e-014 -7.15625e-015
lhumerus 81.4906 -4.47945 57.7644
lradius 11.9516
lwrist -33.3068
lhand -31.3288 -8.73016
lfingers 7.12502
lthumb -4.60067 21.1999
rfemur -78.1269 -29.3104 14.5964
rtibia 131.166
rfoot -34.3564 28.5625
rtoes -29.421
lfemur -78.1455 9.23659 -22.6293
ltibia 134.335
lfoot -28.0314 -5.97726
ltoes -33.6214
